<?xml version="1.0" encoding="utf-8"?>
<!-- Generator: Adobe Illustrator 28.1.0, SVG Export Plug-In . SVG Version: 6.00 Build 0)  -->
<svg version="1.1" id="Calque_1" xmlns="http://www.w3.org/2000/svg" xmlns:xlink="http://www.w3.org/1999/xlink" x="0px" y="0px"
	 viewBox="0 0 800 800" style="enable-background:new 0 0 800 800;" xml:space="preserve">
<style type="text/css">
	.st0{fill:none;stroke:#1a49f8;stroke-width:66.6667;stroke-linecap:round;stroke-linejoin:round;stroke-miterlimit:133.3333;}
</style>
<path class="st0" d="M61.1,249.4l102.5,85.4c6.8,5.6,15.3,8.7,24.1,8.7h424.6c8.8,0,17.3-3.1,24.1-8.7l102.5-85.4 M192.9,475.3h0.4
	 M607.1,475.3h0.4 M255.4,117.6h289.1c27,0,52,14.5,65.4,37.9L719,346.4c13,22.8,19.8,48.5,19.8,74.7v223.6
	c0,20.8-16.9,37.7-37.7,37.7h-37.7c-20.8,0-37.7-16.9-37.7-37.7v-37.7H174.1v37.7c0,20.8-16.9,37.7-37.7,37.7H98.8
	c-20.8,0-37.7-16.9-37.7-37.7V421.2c0-26.2,6.8-52,19.8-74.7l109.1-190.9C203.5,132.1,228.4,117.6,255.4,117.6z M211.7,475.3
	c0,10.4-8.4,18.8-18.8,18.8c-10.4,0-18.8-8.4-18.8-18.8c0-10.4,8.4-18.8,18.8-18.8C203.3,456.5,211.7,464.9,211.7,475.3z
	 M625.9,475.3c0,10.4-8.4,18.8-18.8,18.8s-18.8-8.4-18.8-18.8c0-10.4,8.4-18.8,18.8-18.8S625.9,464.9,625.9,475.3z"/>
</svg>
