<?xml version="1.0" encoding="utf-8"?>
<!-- Generator: Adobe Illustrator 28.1.0, SVG Export Plug-In . SVG Version: 6.00 Build 0)  -->
<svg version="1.1" id="Calque_1" xmlns="http://www.w3.org/2000/svg" xmlns:xlink="http://www.w3.org/1999/xlink" x="0px" y="0px"
	 viewBox="0 0 800 800" style="enable-background:new 0 0 800 800;" xml:space="preserve">
<style type="text/css">
	.st0{fill:none;stroke:#1a49f8;stroke-width:50;stroke-linecap:round;stroke-linejoin:round;stroke-miterlimit:133.3333;}
</style>
<path class="st0" d="M391.1,622.1c-4.4-9.7-13.6-16.8-24.6-18c-9.4-1.1-18.6-3.1-27.3-6c-3.9-1.3-7.6-2.8-11-4.3l5.7-15.4
	c4,1.8,8.1,3.4,12.3,4.9l0.2,0.1l0.2,0.1c13.5,4.5,26.8,6.7,39.5,6.7c12.8,0,22-1.7,29.1-5.4l0.4-0.2l0.4-0.2
	c10.8-6.2,16.9-16.8,16.9-29.1c0-13.7-7.4-25-20.3-31.2c-6.5-3.2-15.7-6.2-28.9-9.5c-13.6-3.4-25-7.1-33.9-10.8
	c-6.5-2.9-12.1-7.6-17.1-14.3c-4.4-6-6.6-14.9-6.6-26.7c0-14.2,4-25.8,12.2-35.7c7.3-8.7,17.7-14.5,31.6-17.8
	c10.3-2.4,18.4-9.8,22-19.3c4.1,9.6,12.8,16.8,23.6,18.5c9.1,1.4,17.4,3.7,24.8,6.9l-5.2,15.1c-14.1-5.7-28-8.5-41.4-8.5
	c-44.6,0-46.9,30.8-46.9,36.9c0,13.4,7.2,24.6,19.8,30.8l0.4,0.2l0.4,0.2c6.4,2.8,15.4,5.6,28.4,8.6c13.5,3,24.7,6.5,33.5,10.4
	l0.2,0.1l0.2,0.1c6.6,2.7,12.2,7.3,17.2,13.9l0.1,0.1l0.1,0.1c4.4,5.7,6.6,14.4,6.6,26c0,13.4-3.9,24.7-11.9,34.7
	c-6.9,8.6-16.6,14.6-29.5,18.2C402.2,604.8,394.5,612.5,391.1,622.1z"/>
<path class="st0" d="M402.4,662.1h-21.5c-4.8,0-8.7-4-8.7-8.9v-17.9c0-4.7-3.6-8.6-8.1-9.1c-10.9-1.2-21.4-3.5-31.6-6.9
	c-9.9-3.3-18.4-7.3-25.7-11.8c-3.3-2.1-4.5-6.4-3.2-10.1l14.7-40.2c2-5.4,8.4-7.5,13.3-4.7c6.7,3.8,13.8,7,21.5,9.7
	c11.4,3.8,22.3,5.7,32.8,5.7c9,0,15.5-1,19.3-3c3.9-2.2,5.8-5.4,5.8-9.6c0-4.9-2.6-8.5-7.7-11c-5-2.4-13.2-5.1-24.8-8
	c-14.9-3.8-27.3-7.8-37.2-12c-9.9-4.4-18.6-11.5-25.9-21.3c-7.4-10-11-23.4-11-40.2c0-19.5,5.8-36.2,17.4-50.2
	c10.4-12.4,24.9-20.8,43.3-25.1c4.1-1,7.2-4.7,7.2-9v-19.7c0-4.9,3.9-8.9,8.7-8.9h21.5c4.8,0,8.7,4,8.7,8.9v18.6
	c0,4.6,3.4,8.4,7.7,9.1c16.1,2.6,30.3,7.4,42.5,14.6c3.5,2,4.8,6.4,3.5,10.2l-13.8,40c-1.8,5.3-7.9,7.6-12.8,5
	c-15.5-8-30.4-12.1-44.5-12.1c-16.7,0-25.1,4.9-25.1,14.6c0,4.7,2.5,8.2,7.4,10.6c5,2.2,13.1,4.7,24.6,7.3
	c14.7,3.3,27.1,7.2,37.2,11.6c10.1,4.2,18.8,11.2,26.2,20.9c7.5,9.7,11.3,23,11.3,39.9c0,18.6-5.6,34.9-16.8,48.9
	c-9.8,12.2-23.3,20.7-40.6,25.6c-4,1.1-6.9,4.7-6.9,8.9v20.7C411.1,658.1,407.2,662.1,402.4,662.1z"/>
<path class="st0" d="M295.9,81.9h188.4c48.3,0,21.8,74.3,2.2,119.6l-22.2,51.9l-3,7c21.1-1,41.9,4.9,59.4,17
	C586,338.8,639,412.6,676.8,494.8c14.7,30.4,20.5,64.5,16.8,98.2c-4.5,85.9-71.7,154.4-155.5,158.4H242.2
	c-83.8-3.9-151.1-72.3-155.7-158.2c-3.7-33.7,2.1-67.8,16.8-98.2c37.8-82.3,90.9-156.1,156.3-217.5c17.5-12.1,38.3-18.1,59.4-17
	l-3.5-8.1l-21.8-50.9C274.3,156.2,247.6,81.9,295.9,81.9z"/>
<path class="st0" d="M461.3,293.9c18.5,0,33.5-15,33.5-33.5s-15-33.5-33.5-33.5V293.9z M318.9,227c-18.5,0-33.5,15-33.5,33.5s15,33.5,33.5,33.5
	V227z M580.9,244.8c16-9.2,21.5-29.7,12.3-45.7c-9.2-16-29.7-21.5-45.7-12.3L580.9,244.8z M464.3,253.5l6.5,32.8l0.1,0L464.3,253.5z
	 M315.5,252.4l6.9-32.7l-0.3-0.1L315.5,252.4z M232.3,186.5c-16.2-8.9-36.5-3.1-45.5,13.1c-8.9,16.2-3.1,36.5,13.1,45.5L232.3,186.5
	z M461.3,227H318.9v66.9h142.4V227z M547.5,186.8c-28,16.1-58.3,27.5-89.7,33.8l13.1,65.6c38.6-7.7,75.8-21.7,110-41.4L547.5,186.8z
	 M457.9,220.6c-44.8,8.8-90.8,8.5-135.5-1l-13.9,65.5c53.5,11.3,108.6,11.7,162.3,1.2L457.9,220.6z M322.1,219.6
	c-31.4-6.3-61.6-17.5-89.8-33l-32.4,58.6c34.1,18.9,70.9,32.4,109,40.1L322.1,219.6z"/>
</svg>
